<?xml version="1.0"?>
<svg width="413" height="256" xmlns="http://www.w3.org/2000/svg" xmlns:svg="http://www.w3.org/2000/svg">
 <g>
  <title>Layer 1</title>
  <path fill="#3aba27" d="m327.867004,86.783005c-46.756012,0 -84.658997,37.903 -84.658997,84.65799c0,46.756012 37.903015,84.660019 84.658997,84.660019s84.658997,-37.904007 84.658997,-84.660019c0,-46.75499 -37.903992,-84.65799 -84.658997,-84.65799zm-14.403992,130.259003l-39.997009,-40.007996l17.029999,-17.035004l22.96701,22.972992l53.020996,-53.020996l17.037994,17.027008l-70.05899,70.063995zm61.454987,-162.876007l-374.917999,0l0,-24.166c0,-16.567993 13.431999,-30 30,-30l314.917999,0c16.567993,0 30,13.432007 30,30l0,24.166zm-128.127991,198.351013c-21.656006,-21.656006 -33.583008,-50.449005 -33.583008,-81.075989c0,-24.225006 7.470001,-47.300995 21.308014,-66.608017l-234.515015,0l0,120.167007c0,16.567993 13.431999,30 30,30l219.358002,0c-0.86499,-0.815002 -1.723999,-1.639008 -2.567993,-2.483002zm-129.122009,-48.518005l-71.667999,0l0,-19l71.667999,0l0,19zm60.5,-39.5l-132.167999,0l0,-19l132.167999,0l0,19z" id="credit-card-9-icon"/>
 </g>
</svg>